<?xml version="1.0" encoding="UTF-8" standalone="no"?>
<svg
   xmlns:dc="http://purl.org/dc/elements/1.1/"
   xmlns:cc="http://creativecommons.org/ns#"
   xmlns:rdf="http://www.w3.org/1999/02/22-rdf-syntax-ns#"
   xmlns:svg="http://www.w3.org/2000/svg"
   xmlns="http://www.w3.org/2000/svg"
   xmlns:sodipodi="http://sodipodi.sourceforge.net/DTD/sodipodi-0.dtd"
   xmlns:inkscape="http://www.inkscape.org/namespaces/inkscape"
   width="512"
   height="512"
   viewBox="0 0 512 512"
   version="1.1"
   id="svg18"
   sodipodi:docname="mode_incirclecenter.svg"
   inkscape:version="0.92.5 (2060ec1f9f, 2020-04-08)">
  <metadata
     id="metadata24">
    <rdf:RDF>
      <cc:Work
         rdf:about="">
        <dc:format>image/svg+xml</dc:format>
        <dc:type
           rdf:resource="http://purl.org/dc/dcmitype/StillImage" />
        <dc:title></dc:title>
      </cc:Work>
    </rdf:RDF>
  </metadata>
  <defs
     id="defs22" />
  <sodipodi:namedview
     pagecolor="#ffffff"
     bordercolor="#666666"
     borderopacity="1"
     objecttolerance="10"
     gridtolerance="10"
     guidetolerance="10"
     inkscape:pageopacity="0"
     inkscape:pageshadow="2"
     inkscape:window-width="1489"
     inkscape:window-height="954"
     id="namedview20"
     showgrid="false"
     inkscape:zoom="0.921875"
     inkscape:cx="181.26223"
     inkscape:cy="277.59337"
     inkscape:window-x="0"
     inkscape:window-y="27"
     inkscape:window-maximized="0"
     inkscape:current-layer="svg18" />
  <path
     fill="#930"
     d="M95.31 431.85l320.01-150.77L135.31 80.15z"
     opacity=".2"
     id="path2" />
  <path
     fill="none"
     stroke="#930"
     stroke-miterlimit="10"
     stroke-width="13"
     d="M95.31 431.85l320.01-150.77L135.31 80.15z"
     id="path4" />
  <ellipse
     style="opacity:1;fill:#c86464;fill-opacity:1;fill-rule:nonzero;stroke:#000700;stroke-width:0.08915967;stroke-miterlimit:4;stroke-dasharray:none;stroke-opacity:1"
     id="path4586"
     cx="215.15254"
     cy="261.76273"
     rx="97.090164"
     ry="98.717285" />
  <circle
     cx="135.31"
     cy="80.15"
     r="35"
     fill="#00f"
     id="circle6" />
  <path
     d="M157.432 64.663c8.537 12.193 5.563 29.064-6.631 37.604-12.195 8.539-29.066 5.564-37.605-6.631s-5.564-29.064 6.631-37.604 29.064-5.564 37.605 6.631m10.648-7.457c-12.672-18.096-37.615-22.492-55.709-9.822-18.096 12.67-22.496 37.613-9.824 55.709 12.672 18.098 37.613 22.494 55.709 9.824 18.096-12.672 22.496-37.613 9.824-55.711z"
     id="path8" />
  <circle
     cx="415.32"
     cy="281.08"
     r="35"
     fill="#00f"
     id="circle10" />
  <path
     d="M437.442 265.596c8.537 12.193 5.563 29.064-6.631 37.604-12.195 8.539-29.066 5.564-37.605-6.631s-5.564-29.064 6.631-37.604 29.064-5.565 37.605 6.631m10.649-7.457c-12.672-18.096-37.615-22.492-55.709-9.822-18.096 12.67-22.496 37.613-9.824 55.709 12.672 18.098 37.613 22.494 55.709 9.824 18.095-12.672 22.496-37.614 9.824-55.711z"
     id="path12" />
  <circle
     cx="95.31"
     cy="431.85"
     r="35"
     fill="#00f"
     id="circle14" />
  <path
     d="M117.428 416.362c8.537 12.193 5.563 29.064-6.631 37.604-12.195 8.539-29.066 5.564-37.605-6.631s-5.564-29.064 6.631-37.604 29.064-5.564 37.605 6.631m10.648-7.457c-12.672-18.096-37.615-22.492-55.709-9.822-18.096 12.67-22.496 37.613-9.824 55.709 12.672 18.098 37.613 22.494 55.709 9.824 18.096-12.672 22.496-37.613 9.824-55.711z"
     id="path16" />
  <circle
     style="fill:#ff0000;fill-opacity:1"
     cx="212.61018"
     cy="262.50845"
     r="35"
     id="circle10-6" />
  <path
     inkscape:connector-curvature="0"
     d="m 237.64307,245.02102 c 8.537,12.193 5.563,29.064 -6.631,37.604 -12.195,8.539 -29.066,5.564 -37.605,-6.631 -8.539,-12.195 -5.564,-29.064 6.631,-37.604 12.195,-8.54 29.064,-5.565 37.605,6.631 m 10.649,-7.457 c -12.672,-18.096 -37.615,-22.492 -55.709,-9.822 -18.096,12.67 -22.496,37.613 -9.824,55.709 12.672,18.098 37.613,22.494 55.709,9.824 18.095,-12.672 22.496,-37.614 9.824,-55.711 z"
     id="path12-3" />
</svg>
