<?xml version="1.0" encoding="UTF-8" standalone="no"?>
<svg
   xmlns:dc="http://purl.org/dc/elements/1.1/"
   xmlns:cc="http://creativecommons.org/ns#"
   xmlns:rdf="http://www.w3.org/1999/02/22-rdf-syntax-ns#"
   xmlns:svg="http://www.w3.org/2000/svg"
   xmlns="http://www.w3.org/2000/svg"
   xmlns:sodipodi="http://sodipodi.sourceforge.net/DTD/sodipodi-0.dtd"
   xmlns:inkscape="http://www.inkscape.org/namespaces/inkscape"
   width="512"
   height="512"
   viewBox="0 0 512 512"
   version="1.1"
   id="svg4665"
   sodipodi:docname="mode_envelope.svg"
   inkscape:version="0.92.5 (2060ec1f9f, 2020-04-08)"
   inkscape:export-filename="/home/kovzol/workspace/geogebra-discovery/fork/geogebra/common/src/nonfree/resources/org/geogebra/common/icons/svg/web/toolIcons/mode_envelope.png"
   inkscape:export-xdpi="6"
   inkscape:export-ydpi="6">
  <metadata
     id="metadata4671">
    <rdf:RDF>
      <cc:Work
         rdf:about="">
        <dc:format>image/svg+xml</dc:format>
        <dc:type
           rdf:resource="http://purl.org/dc/dcmitype/StillImage" />
        <dc:title></dc:title>
      </cc:Work>
    </rdf:RDF>
  </metadata>
  <defs
     id="defs4669" />
  <sodipodi:namedview
     pagecolor="#ffffff"
     bordercolor="#666666"
     borderopacity="1"
     objecttolerance="10"
     gridtolerance="10"
     guidetolerance="10"
     inkscape:pageopacity="0"
     inkscape:pageshadow="2"
     inkscape:window-width="1641"
     inkscape:window-height="1005"
     id="namedview4667"
     showgrid="false"
     inkscape:zoom="0.65186406"
     inkscape:cx="361.17988"
     inkscape:cy="17.615358"
     inkscape:window-x="0"
     inkscape:window-y="34"
     inkscape:window-maximized="0"
     inkscape:current-layer="svg4665" />
  <path
     inkscape:connector-curvature="0"
     style="fill:none;stroke:#0000ff;stroke-width:13;stroke-opacity:1"
     d="M -11.115028,248.86201 436.05025,-87.132339"
     id="path2"
     sodipodi:nodetypes="cc" />
  <path
     inkscape:connector-curvature="0"
     style="fill:none;stroke:#0000ff;stroke-width:13;stroke-opacity:1"
     d="M -25.688622,133.04031 686.86941,40.961841"
     id="path2-7"
     sodipodi:nodetypes="cc" />
  <path
     inkscape:connector-curvature="0"
     style="fill:none;stroke:#0000ff;stroke-width:13;stroke-opacity:1"
     d="M -19.55237,29.491111 663.85848,230.41852"
     id="path2-5"
     sodipodi:nodetypes="cc" />
  <path
     inkscape:connector-curvature="0"
     style="fill:none;stroke:#0000ff;stroke-width:13;stroke-opacity:1"
     d="M 43.344176,-77.893239 620.90474,411.43786"
     id="path2-3"
     sodipodi:nodetypes="cc" />
  <path
     inkscape:connector-curvature="0"
     style="fill:none;stroke:#0000ff;stroke-width:13;stroke-opacity:1"
     d="M 190.61415,-90.165739 542.66757,514.22002"
     id="path2-56"
     sodipodi:nodetypes="cc" />
  <path
     d="M -29.899485,418.70351 C 7.3854534,296.85397 114.78945,125.65635 203.78143,108.08444 293.95637,90.278951 415.39198,251.66212 511.59172,536.55377"
     id="path4651"
     inkscape:connector-curvature="0"
     style="fill:none;stroke:#ff0000;stroke-width:17;stroke-linecap:round"
     sodipodi:nodetypes="csc" />
  <path
     inkscape:connector-curvature="0"
     style="fill:none;stroke:#000000;stroke-width:13"
     d="m 76.326513,301.04908 316.769997,228.61"
     id="path2-9" />
  <path
     inkscape:connector-curvature="0"
     style="fill:#8e8eee;stroke:#000000;stroke-width:16.65999985;stroke-linecap:round;stroke-linejoin:round"
     d="m 301.81351,439.91508 c 0,18.516 -15.011,33.527 -33.527,33.527 -18.518,0 -33.528,-15.012 -33.528,-33.527 0,-18.518 15.011,-33.527 33.528,-33.527 18.516,-10e-4 33.527,15.009 33.527,33.527 z"
     id="path10"
     inkscape:export-xdpi="13.84"
     inkscape:export-ydpi="13.84" />
  <circle
     style="fill:#ffffff"
     cx="268.2865"
     cy="439.90912"
     r="35"
     id="circle12"
     inkscape:export-xdpi="13.84"
     inkscape:export-ydpi="13.84" />
  <circle
     style="opacity:0.4;fill:#0000ff"
     cx="268.2865"
     cy="439.90912"
     r="35"
     id="circle14"
     inkscape:export-xdpi="13.84"
     inkscape:export-ydpi="13.84" />
  <path
     inkscape:connector-curvature="0"
     d="m 290.40451,424.42708 c 8.537,12.193 5.563,29.064 -6.631,37.604 -12.195,8.539 -29.066,5.564 -37.605,-6.631 -8.539,-12.195 -5.564,-29.064 6.631,-37.604 12.194,-8.538 29.064,-5.565 37.605,6.631 m 10.648,-7.457 c -12.672,-18.095 -37.615,-22.493 -55.709,-9.821 -18.096,12.669 -22.496,37.612 -9.824,55.708 12.672,18.098 37.613,22.494 55.709,9.824 18.096,-12.672 22.496,-37.613 9.824,-55.711 z"
     id="path16"
     inkscape:export-xdpi="13.84"
     inkscape:export-ydpi="13.84" />
</svg>
